<svg xmlns="http://www.w3.org/2000/svg" viewBox="0 0 32 32" fill="none">
  <defs>
    <linearGradient id="doubaoGrad" x1="0%" y1="0%" x2="100%" y2="100%">
      <stop offset="0%" style="stop-color:#3b82f6"/>
      <stop offset="100%" style="stop-color:#2563eb"/>
    </linearGradient>
  </defs>
  <rect width="32" height="32" rx="8" fill="url(#doubaoGrad)"/>
  <path d="M16 8C11.58 8 8 11.58 8 16s3.58 8 8 8 8-3.58 8-8-3.58-8-8-8zm0 14.4c-3.53 0-6.4-2.87-6.4-6.4S12.47 9.6 16 9.6s6.4 2.87 6.4 6.4-2.87 6.4-6.4 6.4z" fill="white" opacity="0.3"/>
  <circle cx="12.5" cy="14.5" r="2" fill="white"/>
  <circle cx="19.5" cy="14.5" r="2" fill="white"/>
  <path d="M12 19c0 0 1.5 2 4 2s4-2 4-2" stroke="white" stroke-width="1.5" stroke-linecap="round"/>
</svg>